# xmcd
#
# Track frame offsets:
#	150
#	18310
#	35755
#	52749
#	75006
#	90773
#	108332
#	129643
#	148577
#	160175
#	176798
#	198301
#	210987
#	226435
#	245702
#	259588
#	276738
#	287394
#	309569
#	326219
#
# Disc length: 4593 seconds
#
# Revision: 1
# Processed by: cddbd v1.5.2PL0 Copyright (c) Steve Scherf et al.
# Submitted via: EasyCDDAExtractor 2010.6.0.0
#
DISCID=1111ef14
DTITLE=Various Artist - Goud
DYEAR=2010
DGENRE=Pop
TTITLE0=Gerard Joling and Andre Hazes - Blijf Bij Mij
TTITLE1=Gerard Joling and Bonnie St. Claire - Morgen Wordt Alles Anders
TTITLE2=Gerard Joling and Shirley Zwerus - Heel Even
TTITLE3=Gerard Joling and Ruth Jacott - Pluk De Dag
TTITLE4=Gerard Joling and Gordon - Als Je Alles Hebt Gehad
TTITLE5=Gerard Joling and Patricia Paay - Bloedheet
TTITLE6=Gerard Joling and Rita Hovink - Laat Me Alleen
TTITLE7=Gerard Joling and Ellemieke Vermolen - Liefde
TTITLE8=Gerard Joling and Herman Brood - Forever
TTITLE9=Gerard Joling and Karin Bloemen - Love Can Change Your Life
TTITLE10=Gerard Joling and Hyawata Akie - Don't Give Up
TTITLE11=Gerard Joling and Hans Dulfer - What A Difference A Day Makes
TTITLE12=Gerard Joling and The Trammps - Disco Inferno
TTITLE13=Gerard Joling and Debby Sledge - A Philly Love Song
TTITLE14=Gerard Joling and George McCrae - Rock Your Baby
TTITLE15=Gerard Joling and Randy Crawford - Everybody Needs A Little Rain
TTITLE16=Gerard Joling and The Jordanairs - A Prayer
TTITLE17=Gerard Joling and Tatjana - Can't Take My Eyes Off You
TTITLE18=Gerard Joling and Cool Down Cafe - The Lion Sleeps Tonight
TTITLE19=Gerard Joling and Jan Rietman - At Your Service
EXTD=
EXTT0=
EXTT1=
EXTT2=
EXTT3=
EXTT4=
EXTT5=
EXTT6=
EXTT7=
EXTT8=
EXTT9=
EXTT10=
EXTT11=
EXTT12=
EXTT13=
EXTT14=
EXTT15=
EXTT16=
EXTT17=
EXTT18=
EXTT19=
PLAYORDER=
